<svg width="48" height="48" viewBox="0 0 48 48" fill="none" xmlns="http://www.w3.org/2000/svg">
<g clip-path="url(#clip0_547_23)">
<rect width="48" height="48" rx="5" fill="#2C8A57"/>
<path d="M-8.62109 4.75C-7.93221 4.75004 -7.56611 5.07796 -7.19531 5.33301C-6.83578 5.5803 -6.39809 5.82715 -5.48633 5.82715C-4.53613 5.82715 -3.38651 5.96393 -2.48145 6.09863C-2.02737 6.16622 -1.6316 6.23446 -1.34961 6.28516C-1.20887 6.31046 -1.09616 6.33087 -1.01855 6.3457C-0.979724 6.35312 -0.949147 6.35927 -0.928711 6.36328C-0.918602 6.36526 -0.910536 6.36712 -0.905273 6.36816C-0.902808 6.36865 -0.900729 6.36888 -0.899414 6.36914H-0.897461L-0.802734 6.38867L-0.745117 6.4668L-0.743164 6.46875C-0.74225 6.47001 -0.740697 6.47162 -0.739258 6.47363L-0.688477 6.5498C-0.656903 6.59946 -0.615729 6.67028 -0.573242 6.75488C-0.490633 6.9194 -0.394424 7.15884 -0.385742 7.41309C-0.376726 7.68054 -0.465977 7.96928 -0.75293 8.17871C-1.02321 8.37577 -1.43788 8.47946 -2.02637 8.47949H-4.94043L-3.85059 12.3799H14.375L13.1191 9.53613H11.8838V7.31543H19.3018V9.53809H15.5391L20.3398 19.5947C21.5104 19.256 22.7484 19.0733 24.0264 19.0732C31.3278 19.0732 37.2499 24.9688 37.25 32.2441C37.2483 39.5211 31.3268 45.4169 24.0254 45.417C16.7239 45.417 10.8018 39.5212 10.8018 32.2441C10.8018 26.9944 13.8925 22.4739 18.3506 20.3584L17.1924 17.7627L5.67383 33.1641V35.998H7.40332V38.2227H1.71191V35.998H3.44336V34.751L-0.992188 34.3359C-2.00087 40.613 -7.44276 45.4149 -14.0283 45.415C-21.33 45.4168 -27.25 39.5212 -27.25 32.2441C-27.2499 24.9688 -21.3296 19.0732 -14.0264 19.0732C-12.2096 19.0733 -10.4825 19.446 -8.9082 20.1055L-5.79688 12.3193L-7.17578 8.48145H-8.73047C-9.18155 8.48138 -9.52109 8.36031 -9.76367 8.15137C-10.0041 7.94429 -10.1228 7.67347 -10.1777 7.42285C-10.2323 7.17349 -10.2266 6.93018 -10.21 6.75391C-10.2015 6.66468 -10.1905 6.58921 -10.1807 6.53613C-10.1758 6.50985 -10.1713 6.48875 -10.168 6.47363C-10.1674 6.47088 -10.1665 6.46817 -10.166 6.46582C-10.1647 6.45255 -10.163 6.43381 -10.1602 6.41113C-10.1542 6.36477 -10.1446 6.29991 -10.1289 6.22266C-10.0977 6.06885 -10.042 5.86013 -9.94336 5.64844C-9.74567 5.22409 -9.35169 4.75 -8.62109 4.75ZM-14.0264 21.2949C-20.0993 21.2949 -25.0204 26.1973 -25.0205 32.2441C-25.0205 38.291 -20.0994 43.1914 -14.0264 43.1914C-8.59706 43.1912 -4.10165 39.266 -3.21191 34.1094L-11.7344 33.2344C-11.9743 34.0414 -12.6944 34.6474 -13.5947 34.6475C-14.688 34.6475 -15.5742 33.7656 -15.5742 32.6729C-15.5742 31.5839 -14.6883 30.6982 -13.5947 30.6982C-13.4417 30.6983 -13.2982 30.7235 -13.165 30.7588L-9.73438 22.1719C-11.0552 21.6146 -12.5023 21.295 -14.0264 21.2949ZM24.0254 21.2949C23.0667 21.2949 22.1385 21.4237 21.251 21.6562L25.1201 30.4629C25.9852 30.6635 26.6533 31.4116 26.6533 32.3496C26.6532 33.4403 25.7662 34.3242 24.6729 34.3242C23.5802 34.324 22.6916 33.4424 22.6914 32.3496C22.6914 31.8792 22.8613 31.4481 23.1387 31.1094L19.2529 22.3887C15.5714 24.1591 13.0304 27.9004 13.0303 32.2422C13.0303 38.2873 17.9503 43.1903 24.0215 43.1904C30.0928 43.1904 35.0137 38.2874 35.0137 32.2422C35.0135 26.1972 30.0964 21.2951 24.0254 21.2949ZM-7.07324 21.0605C-3.31704 23.3822 -0.805664 27.5157 -0.805664 32.2461C-0.805667 32.2848 -0.808606 32.3229 -0.810547 32.3594L1.49316 32.6006L-4.76758 15.1836L-7.07324 21.0605ZM15.7363 14.6025H-3.06738L3.53613 32.207L16.2471 15.6299L15.7363 14.4854V14.6025ZM-11.0801 31.2754L-3.03809 32.1221C-3.07917 28.3896 -4.99774 25.1132 -7.89844 23.166L-11.0801 31.2754Z" fill="white" stroke="white" stroke-width="0.5"/>
<g clip-path="url(#clip1_547_23)">
<mask id="path-3-inside-1_547_23" fill="white">
<path d="M45.8308 19.1908C46.057 19.4171 46.057 19.784 45.8308 20.0108L45.0108 20.8308C44.784 21.057 44.4171 21.057 44.1908 20.8308L38.4505 15.0904C38.3881 15.0281 38.3466 14.9544 38.3187 14.8761C37.1412 15.7364 35.6955 16.25 34.125 16.25C30.1902 16.25 27 13.0598 27 9.125C27 5.19022 30.1902 2 34.125 2C38.0598 2 41.25 5.19022 41.25 9.125C41.25 10.6955 40.7364 12.1412 39.8761 13.3187C39.9544 13.3466 40.0281 13.3875 40.0904 13.4505L45.8308 19.1908ZM34.125 4.375C31.5018 4.375 29.375 6.50181 29.375 9.125C29.375 11.7482 31.5018 13.875 34.125 13.875C36.7482 13.875 38.875 11.7482 38.875 9.125C38.875 6.50181 36.7482 4.375 34.125 4.375Z"/>
</mask>
<path d="M45.8308 19.1908C46.057 19.4171 46.057 19.784 45.8308 20.0108L45.0108 20.8308C44.784 21.057 44.4171 21.057 44.1908 20.8308L38.4505 15.0904C38.3881 15.0281 38.3466 14.9544 38.3187 14.8761C37.1412 15.7364 35.6955 16.25 34.125 16.25C30.1902 16.25 27 13.0598 27 9.125C27 5.19022 30.1902 2 34.125 2C38.0598 2 41.25 5.19022 41.25 9.125C41.25 10.6955 40.7364 12.1412 39.8761 13.3187C39.9544 13.3466 40.0281 13.3875 40.0904 13.4505L45.8308 19.1908ZM34.125 4.375C31.5018 4.375 29.375 6.50181 29.375 9.125C29.375 11.7482 31.5018 13.875 34.125 13.875C36.7482 13.875 38.875 11.7482 38.875 9.125C38.875 6.50181 36.7482 4.375 34.125 4.375Z" fill="white"/>
<path d="M45.8308 20.0108L47.9521 22.1321L47.9549 22.1294L45.8308 20.0108ZM45.0108 20.8308L47.1294 22.9549L47.1321 22.9521L45.0108 20.8308ZM38.3187 14.8761L41.1448 13.8698L39.7959 10.0811L36.5487 12.4538L38.3187 14.8761ZM39.8761 13.3187L37.4538 11.5487L35.0811 14.7959L38.8698 16.1448L39.8761 13.3187ZM40.0904 13.4505L37.9591 15.5617L37.9641 15.5668L37.9691 15.5718L40.0904 13.4505ZM45.8308 19.1908L43.7095 21.3122C42.7626 20.3653 42.7666 18.8349 43.7067 17.8923L45.8308 20.0108L47.9549 22.1294C49.3474 20.7331 49.3514 18.4688 47.9521 17.0695L45.8308 19.1908ZM45.8308 20.0108L43.7095 17.8895L42.8895 18.7095L45.0108 20.8308L47.1321 22.9521L47.9521 22.1321L45.8308 20.0108ZM45.0108 20.8308L42.8923 18.7067C43.8349 17.7666 45.3653 17.7626 46.3122 18.7095L44.1908 20.8308L42.0695 22.9521C43.4688 24.3514 45.7331 24.3474 47.1294 22.9549L45.0108 20.8308ZM44.1908 20.8308L46.3122 18.7095L40.5718 12.9691L38.4505 15.0904L36.3291 17.2117L42.0695 22.9521L44.1908 20.8308ZM38.4505 15.0904L40.5718 12.9691C40.8844 13.2817 41.0549 13.617 41.1448 13.8698L38.3187 14.8761L35.4925 15.8824C35.6383 16.2918 35.8919 16.7745 36.3291 17.2117L38.4505 15.0904ZM38.3187 14.8761L36.5487 12.4538C35.8594 12.9575 35.0281 13.25 34.125 13.25V16.25V19.25C36.3628 19.25 38.4231 18.5153 40.0886 17.2983L38.3187 14.8761ZM34.125 16.25V13.25C31.8471 13.25 30 11.4029 30 9.125H27H24C24 14.7166 28.5334 19.25 34.125 19.25V16.25ZM27 9.125H30C30 6.84707 31.8471 5 34.125 5V2V-1C28.5334 -1 24 3.53336 24 9.125H27ZM34.125 2V5C36.4029 5 38.25 6.84707 38.25 9.125H41.25H44.25C44.25 3.53336 39.7166 -1 34.125 -1V2ZM41.25 9.125H38.25C38.25 10.0281 37.9575 10.8594 37.4538 11.5487L39.8761 13.3187L42.2983 15.0886C43.5153 13.4231 44.25 11.3628 44.25 9.125H41.25ZM39.8761 13.3187L38.8698 16.1448C38.6291 16.0592 38.2833 15.8891 37.9591 15.5617L40.0904 13.4505L42.2218 11.3392C41.7728 10.886 41.2798 10.634 40.8824 10.4925L39.8761 13.3187ZM40.0904 13.4505L37.9691 15.5718L43.7095 21.3122L45.8308 19.1908L47.9521 17.0695L42.2117 11.3291L40.0904 13.4505ZM34.125 4.375V1.375C29.845 1.375 26.375 4.84496 26.375 9.125H29.375H32.375C32.375 8.15867 33.1587 7.375 34.125 7.375V4.375ZM29.375 9.125H26.375C26.375 13.405 29.845 16.875 34.125 16.875V13.875V10.875C33.1587 10.875 32.375 10.0913 32.375 9.125H29.375ZM34.125 13.875V16.875C38.405 16.875 41.875 13.405 41.875 9.125H38.875H35.875C35.875 10.0913 35.0913 10.875 34.125 10.875V13.875ZM38.875 9.125H41.875C41.875 4.84496 38.405 1.375 34.125 1.375V4.375V7.375C35.0913 7.375 35.875 8.15867 35.875 9.125H38.875Z" fill="white" mask="url(#path-3-inside-1_547_23)"/>
</g>
</g>
<defs>
<clipPath id="clip0_547_23">
<rect width="48" height="48" rx="5" fill="white"/>
</clipPath>
<clipPath id="clip1_547_23">
<rect width="19" height="19" fill="white" transform="translate(27 2)"/>
</clipPath>
</defs>
</svg>
