<svg width="400" height="62" viewBox="0 0 400 62" fill="none" xmlns="http://www.w3.org/2000/svg">
<path d="M51.4324 9.56612C48.6587 6.98599 45.4089 4.94409 41.7605 3.50699C38.112 2.06989 34.2477 1.34302 30.2671 1.34302C26.2864 1.34302 22.3557 2.06989 18.7349 3.50699C15.1141 4.94409 11.8754 6.98045 9.10171 9.56612C6.32248 12.1573 4.0858 15.3256 2.45813 18.9822C0.830448 22.6443 0 26.7503 0 31.1781C0 35.6059 0.830448 39.7064 2.46366 43.3463C4.09134 46.9807 6.32801 50.1434 9.10724 52.7568C11.8809 55.3647 15.1252 57.4066 18.7515 58.8215C22.3723 60.2308 26.2477 60.9522 30.2781 60.9522C34.3086 60.9522 38.1231 60.2253 41.7715 58.7882C45.4144 57.3511 48.6698 55.3147 51.4435 52.7291C54.2227 50.1378 56.4594 46.9696 58.0871 43.313C59.7203 39.6453 60.5507 35.5671 60.5507 31.1837C60.5507 26.8002 59.7203 22.6498 58.0871 18.9822C56.4594 15.3256 54.2227 12.1573 51.4435 9.56612H51.4324ZM30.2671 48.2458C27.7203 48.2458 25.3563 47.7852 23.247 46.8697C21.1266 45.9542 19.2609 44.7057 17.6996 43.1632C16.1439 41.6262 14.9204 39.8007 14.0512 37.7255C13.182 35.6503 12.7446 33.4475 12.7446 31.1781C12.7446 28.9087 13.182 26.6449 14.0512 24.5974C14.9204 22.5444 16.1494 20.73 17.6996 19.193C19.2553 17.656 21.1266 16.4076 23.247 15.4865C25.3563 14.571 27.7203 14.1105 30.2671 14.1105C32.8138 14.1105 35.1722 14.5765 37.2871 15.4865C39.4075 16.4076 41.2788 17.6505 42.8345 19.193C44.3902 20.73 45.6137 22.5444 46.4829 24.5974C47.3466 26.6449 47.7895 28.8588 47.7895 31.1781C47.7895 33.4974 47.3521 35.6559 46.4829 37.7255C45.6137 39.7952 44.3847 41.6262 42.8345 43.1576C41.2733 44.7002 39.4075 45.9486 37.2871 46.8641C35.1778 47.7797 32.8138 48.2402 30.2671 48.2402V48.2458Z" fill="#141414"/>
<path d="M115.006 4.01751C113.777 2.75797 112.277 2.11987 110.544 2.11987H87.1418C84.8608 2.11987 82.6463 2.49718 80.548 3.2407C78.4331 3.98977 76.5397 5.12169 74.9176 6.60318C73.2954 8.09022 71.9833 9.94347 71.02 12.1185C70.0512 14.2992 69.564 16.8349 69.564 19.6647C69.564 20.9853 69.7467 22.267 70.101 23.4655C70.4498 24.6363 70.9038 25.746 71.4574 26.7503C71.9999 27.738 72.6145 28.6702 73.2899 29.5191C73.7217 30.0629 74.137 30.5678 74.5466 31.0339C74.1425 31.4889 73.7273 31.9827 73.301 32.5043C72.6255 33.331 72.011 34.241 71.4685 35.2009C70.9148 36.183 70.4553 37.265 70.1065 38.4191C69.7467 39.601 69.5695 40.8661 69.5695 42.1867V54.4825C69.5695 56.1193 70.1619 57.5509 71.3356 58.7327C72.5093 59.9146 73.9321 60.5194 75.5543 60.5194H76.1854C77.8131 60.5194 79.2304 59.9202 80.4041 58.7327C81.5778 57.5509 82.1702 56.1249 82.1702 54.4825V42.1867C82.1702 41.6928 82.2809 41.1546 82.4968 40.5831C82.7072 40.0171 83.0283 39.5011 83.438 39.0517C83.8477 38.6022 84.3681 38.2249 84.9826 37.9253C85.575 37.6368 86.3058 37.4925 87.1418 37.4925H102.743C104.974 37.4925 106.691 36.8045 107.853 35.4395C108.971 34.1245 109.542 32.643 109.542 31.0339C109.542 29.4248 108.971 27.9433 107.853 26.6283C106.691 25.2688 104.974 24.5753 102.743 24.5753H87.1418C86.3113 24.5753 85.5916 24.4199 85.0048 24.1147C84.3847 23.7929 83.8643 23.3934 83.449 22.9218C83.0283 22.4446 82.7072 21.9119 82.4913 21.3348C82.2754 20.7633 82.1646 20.2029 82.1646 19.6592C82.1646 19.1653 82.2754 18.6271 82.4913 18.0556C82.7072 17.4841 83.0283 16.9514 83.4435 16.4742C83.8477 16.0081 84.3625 15.6253 84.9771 15.3257C85.5695 15.0371 86.3003 14.8929 87.1362 14.8929H110.538C111.391 14.8929 112.221 14.7042 113.007 14.338C113.771 13.9829 114.452 13.5113 115.028 12.9342C115.604 12.3516 116.08 11.658 116.434 10.8645C116.805 10.0378 116.966 9.1833 116.911 8.31771C116.85 6.70306 116.207 5.25486 115.001 4.01751H115.006Z" fill="#141414"/>
<path d="M168.553 4.01751C167.324 2.75797 165.824 2.11987 164.091 2.11987H140.689C138.408 2.11987 136.193 2.49718 134.095 3.2407C131.98 3.98977 130.087 5.12169 128.465 6.60318C126.843 8.09022 125.53 9.94347 124.567 12.1185C123.598 14.2992 123.111 16.8349 123.111 19.6647C123.111 20.9908 123.294 22.267 123.648 23.4655C123.997 24.6418 124.456 25.746 125.005 26.7503C125.547 27.7435 126.162 28.6757 126.831 29.5191C127.263 30.0629 127.684 30.5733 128.088 31.0339C127.69 31.4889 127.274 31.9772 126.843 32.5043C126.167 33.331 125.553 34.2355 125.01 35.2009C124.456 36.183 123.997 37.265 123.648 38.4191C123.288 39.5955 123.111 40.8661 123.111 42.1922V54.488C123.111 56.1249 123.703 57.5564 124.877 58.7383C126.051 59.9202 127.474 60.525 129.096 60.525H129.727C131.355 60.525 132.772 59.9257 133.946 58.7383C135.114 57.5564 135.712 56.1249 135.712 54.488V42.1922C135.712 41.6984 135.822 41.1546 136.038 40.5887C136.254 40.0227 136.57 39.5067 136.98 39.0572C137.389 38.6078 137.91 38.2249 138.524 37.9309C139.117 37.6423 139.842 37.4981 140.683 37.4981H156.285C158.516 37.4981 160.232 36.81 161.395 35.4451C162.519 34.13 163.083 32.6485 163.083 31.0394C163.083 29.4303 162.513 27.9488 161.395 26.6338C160.232 25.2744 158.516 24.5808 156.285 24.5808H140.683C139.853 24.5808 139.133 24.4254 138.546 24.1203C137.926 23.7984 137.406 23.3989 136.991 22.9273C136.57 22.4501 136.249 21.9175 136.033 21.3404C135.817 20.7744 135.706 20.2085 135.706 19.6647C135.706 19.1709 135.817 18.6327 136.033 18.0611C136.249 17.4896 136.57 16.957 136.991 16.4798C137.4 16.0081 137.904 15.6308 138.524 15.3312C139.117 15.0427 139.842 14.8984 140.683 14.8984H164.085C164.938 14.8984 165.768 14.7098 166.555 14.3435C167.319 13.9884 167.994 13.5168 168.575 12.9397C169.151 12.3571 169.627 11.6636 169.982 10.8701C170.352 10.0433 170.513 9.1833 170.458 8.31771C170.397 6.70306 169.755 5.26041 168.548 4.01751H168.553Z" fill="#141414"/>
<path d="M228.035 34.0191C227.321 32.9094 226.529 31.8995 225.677 31.0228C225.112 30.4402 224.581 29.9298 224.071 29.4803C224.326 29.1529 224.597 28.8034 224.874 28.4316C225.4 27.7269 225.898 26.9113 226.352 26.0069C226.806 25.0969 227.188 24.0815 227.487 22.9828C227.792 21.862 227.947 20.6302 227.947 19.3096C227.947 16.4299 227.437 13.8942 226.435 11.7801C225.433 9.67163 224.082 7.89606 222.421 6.5089C220.772 5.12729 218.856 4.08969 216.736 3.41275C214.637 2.74691 212.451 2.40845 210.231 2.40845H184.564C183.717 2.40845 182.887 2.5971 182.095 2.96331C181.331 3.31843 180.65 3.79006 180.074 4.36712C179.493 4.94973 179.028 5.63776 178.696 6.41457C178.358 7.20248 178.192 8.02368 178.192 8.86153L178.12 53.4227C178.12 54.2772 178.308 55.1095 178.674 55.8974C179.028 56.6631 179.498 57.3456 180.074 57.9227C180.65 58.4998 181.331 58.9769 182.095 59.3265C182.881 59.6927 183.712 59.8814 184.564 59.8814H210.231C213.054 59.8814 215.717 59.5096 218.136 58.7716C220.589 58.0281 222.754 56.9017 224.57 55.4313C226.402 53.9443 227.864 52.0744 228.916 49.8661C229.968 47.6577 230.499 45.0776 230.499 42.1923C230.499 40.622 230.266 39.135 229.812 37.7589C229.364 36.405 228.766 35.151 228.041 34.0191H228.035ZM216.11 45.8322C214.914 46.6811 212.932 47.1084 210.225 47.1084H190.859V37.2873H210.225C213.912 37.2873 215.54 38.0086 216.254 38.6189C217.262 39.4734 217.749 40.6442 217.749 42.1978C217.749 43.8624 217.212 45.0498 216.11 45.8322ZM214.001 23.0161C213.17 23.9206 211.936 24.3645 210.225 24.3645H190.859V15.2536H210.225C212.035 15.2536 213.347 15.6309 214.123 16.3689C214.892 17.1068 215.269 18.0667 215.269 19.3152C215.269 20.8744 214.853 22.084 214.001 23.0217V23.0161Z" fill="#141414"/>
<path d="M253.397 16.7238C253.813 16.291 254.339 15.9193 254.959 15.6141C255.551 15.3256 256.276 15.1813 257.118 15.1813H280.52C281.372 15.1813 282.203 14.9927 282.989 14.6264C283.753 14.2713 284.434 13.7997 285.01 13.2226C285.586 12.6456 286.062 11.9464 286.416 11.153C286.787 10.3207 286.947 9.46065 286.892 8.65054C286.892 7.84044 286.704 7.04144 286.333 6.27017C285.984 5.53775 285.53 4.88301 284.988 4.3115C284.434 3.72889 283.759 3.25171 282.983 2.89105C282.192 2.52484 281.361 2.33618 280.514 2.33618H257.112C254.831 2.33618 252.617 2.71349 250.518 3.45701C248.404 4.20608 246.51 5.338 244.894 6.81949C243.277 8.30098 241.965 10.1431 240.996 12.296C240.027 14.4489 239.534 16.9791 239.534 19.8089C239.534 21.135 239.717 22.4112 240.071 23.6042C240.42 24.7805 240.88 25.8902 241.428 26.889C241.97 27.8766 242.585 28.8088 243.255 29.6577C243.687 30.2015 244.107 30.712 244.512 31.1725C244.113 31.6275 243.698 32.1213 243.266 32.6485C242.59 33.4752 241.97 34.4018 241.428 35.3895C240.874 36.3938 240.42 37.498 240.071 38.6743C239.717 39.8728 239.534 41.149 239.534 42.4751C239.534 45.3049 240.027 47.8351 240.996 49.988C241.965 52.1409 243.277 53.9775 244.899 55.4312C246.516 56.885 248.404 58.0058 250.518 58.7548C252.617 59.4984 254.837 59.8757 257.112 59.8757H280.514C282.253 59.8757 283.759 59.2209 284.982 57.9336C286.183 56.6741 286.826 55.2148 286.887 53.6057C286.942 52.7346 286.781 51.8856 286.405 51.0811C286.051 50.3154 285.574 49.6329 285.004 49.0614C284.434 48.4898 283.753 48.0127 282.983 47.6576C282.192 47.2913 281.361 47.1027 280.514 47.1027H257.112C256.271 47.1027 255.545 46.9584 254.953 46.6699C254.339 46.3703 253.818 45.993 253.408 45.5435C252.993 45.0885 252.678 44.5836 252.462 44.0343C252.246 43.4905 252.141 42.9689 252.141 42.4751C252.141 41.9813 252.251 41.4209 252.473 40.8216C252.689 40.2335 253.01 39.6897 253.425 39.2125C253.835 38.7409 254.361 38.3358 254.981 38.0195C255.568 37.7144 256.287 37.559 257.118 37.559H276.406C278.582 37.559 280.282 36.8876 281.466 35.5615C282.624 34.2687 283.205 32.7927 283.205 31.1725C283.205 30.3458 283.05 29.5301 282.745 28.7533C282.441 27.9765 281.992 27.2663 281.406 26.6559C280.824 26.0456 280.105 25.5517 279.274 25.1911C278.444 24.8304 277.475 24.6473 276.401 24.6473H257.112C256.282 24.6473 255.562 24.4919 254.975 24.1868C254.361 23.8705 253.835 23.471 253.425 22.9938C253.004 22.5166 252.683 21.9839 252.467 21.4124C252.251 20.8409 252.141 20.3027 252.141 19.8089C252.141 19.315 252.251 18.7768 252.467 18.2053C252.678 17.6449 252.993 17.1511 253.392 16.7238H253.397Z" fill="#141414"/>
<path d="M343.003 13.5889C342.333 11.8799 341.419 10.2486 340.284 8.7338C339.122 7.19127 337.599 5.85405 335.745 4.74987C333.918 3.66233 331.692 2.79119 329.134 2.1531C326.588 1.52055 323.537 1.19873 320.071 1.19873C316.606 1.19873 313.555 1.52055 311.008 2.1531C308.445 2.79119 306.219 3.66233 304.398 4.74987C302.543 5.85405 301.021 7.19682 299.864 8.7338C298.729 10.243 297.81 11.8743 297.145 13.5889C296.481 15.2923 296.033 17.1067 295.806 18.9822C295.59 20.8132 295.479 22.6443 295.479 24.4254V54.488C295.479 56.2857 296.099 57.7617 297.312 58.8769C298.502 59.97 299.903 60.5193 301.464 60.5193H302.095C303.606 60.5193 304.99 59.97 306.203 58.8825C307.449 57.7672 308.08 56.2857 308.08 54.488V38.9185H332.063V54.488C332.063 56.2913 332.694 57.7672 333.94 58.8825C335.152 59.97 336.536 60.5193 338.048 60.5193H338.679C340.24 60.5193 341.635 59.9645 342.831 58.8769C344.049 57.7617 344.664 56.2857 344.664 54.488V24.4254C344.664 22.6443 344.553 20.8132 344.337 18.9822C344.116 17.1067 343.667 15.2923 343.003 13.5889ZM320.066 13.9051C322.463 13.9051 324.467 14.1715 326.023 14.7041C327.534 15.2202 328.747 15.9415 329.633 16.8404C330.513 17.7393 331.138 18.8268 331.493 20.0808C331.869 21.4069 332.063 22.8718 332.063 24.4309V26.2176H308.08V24.4309C308.08 22.8718 308.273 21.4069 308.65 20.0808C309.004 18.8268 309.63 17.7393 310.51 16.8404C311.39 15.9359 312.608 15.2202 314.12 14.7041C315.67 14.1715 317.674 13.9051 320.077 13.9051H320.066Z" fill="#141414"/>
<path d="M398.449 6.45885C398.095 5.69314 397.618 5.01065 397.048 4.43914C396.478 3.86763 395.814 3.396 395.077 3.04088C394.308 2.66912 393.483 2.48047 392.63 2.48047H356.539C355.692 2.48047 354.861 2.66912 354.07 3.03533C353.306 3.39045 352.625 3.86763 352.054 4.43914C351.473 5.02175 351.008 5.70978 350.676 6.49214C350.344 7.2745 350.172 8.10125 350.172 8.9391C350.172 10.6814 350.825 12.1906 352.104 13.4169C353.378 14.6376 354.867 15.2535 356.544 15.2535H368.182V54.488C368.182 56.2913 368.818 57.7728 370.075 58.888C371.293 59.97 372.683 60.5249 374.205 60.5249H374.914C376.481 60.5249 377.887 59.97 379.083 58.8825C380.306 57.7672 380.932 56.2913 380.932 54.4935V15.2535H392.641C394.313 15.2535 395.808 14.6376 397.081 13.4169C398.366 12.1851 399.019 10.6758 399.019 8.9391C399.019 8.09015 398.831 7.25786 398.465 6.45885H398.449Z" fill="#141414"/>
</svg>
